<svg width="35" height="31" viewBox="0 0 35 31" fill="none" xmlns="http://www.w3.org/2000/svg">
<path d="M32.5007 6.84635H22.5007C22.0586 6.84635 21.6347 7.02195 21.3221 7.33451C21.0096 7.64707 20.834 8.07099 20.834 8.51302V13.513H17.5007V1.84635C17.5007 1.40433 17.3251 0.980403 17.0125 0.667843C16.6999 0.355282 16.276 0.179688 15.834 0.179688H2.50065C2.05862 0.179688 1.6347 0.355282 1.32214 0.667843C1.00958 0.980403 0.833984 1.40433 0.833984 1.84635V28.513C0.833984 28.955 1.00958 29.379 1.32214 29.6915C1.6347 30.0041 2.05862 30.1797 2.50065 30.1797H32.5007C32.9427 30.1797 33.3666 30.0041 33.6792 29.6915C33.9917 29.379 34.1673 28.955 34.1673 28.513V8.51302C34.1673 8.07099 33.9917 7.64707 33.6792 7.33451C33.3666 7.02195 32.9427 6.84635 32.5007 6.84635ZM10.834 5.17969H14.1673V8.51302H10.834V5.17969ZM7.50065 21.8464H4.16732V18.513H7.50065V21.8464ZM7.50065 15.1797H4.16732V11.8464H7.50065V15.1797ZM7.50065 8.51302H4.16732V5.17969H7.50065V8.51302ZM14.1673 21.8464H10.834V18.513H14.1673V21.8464ZM14.1673 15.1797H10.834V11.8464H14.1673V15.1797ZM29.1673 21.8464H25.834V18.513H29.1673V21.8464ZM29.1673 15.1797H25.834V11.8464H29.1673V15.1797Z" fill="white"/>
</svg>
