<svg width="32" height="33" viewBox="0 0 32 33" fill="none" xmlns="http://www.w3.org/2000/svg">
<path d="M7.00065 32.1803H2.00065C1.55862 32.1803 1.1347 32.0047 0.82214 31.6922C0.509579 31.3796 0.333984 30.9557 0.333984 30.5137V17.1803C0.333984 16.7383 0.509579 16.3144 0.82214 16.0018C1.1347 15.6893 1.55862 15.5137 2.00065 15.5137H7.00065C7.44268 15.5137 7.8666 15.6893 8.17916 16.0018C8.49172 16.3144 8.66732 16.7383 8.66732 17.1803V30.5137C8.66732 30.9557 8.49172 31.3796 8.17916 31.6922C7.8666 32.0047 7.44268 32.1803 7.00065 32.1803ZM18.6673 32.1803H13.6673C13.2253 32.1803 12.8014 32.0047 12.4888 31.6922C12.1762 31.3796 12.0007 30.9557 12.0007 30.5137V2.18034C12.0007 1.73831 12.1762 1.31439 12.4888 1.00183C12.8014 0.689267 13.2253 0.513672 13.6673 0.513672H18.6673C19.1093 0.513672 19.5333 0.689267 19.8458 1.00183C20.1584 1.31439 20.334 1.73831 20.334 2.18034V30.5137C20.334 30.9557 20.1584 31.3796 19.8458 31.6922C19.5333 32.0047 19.1093 32.1803 18.6673 32.1803ZM30.334 32.1803H25.334C24.892 32.1803 24.468 32.0047 24.1555 31.6922C23.8429 31.3796 23.6673 30.9557 23.6673 30.5137V12.1803C23.6673 11.7383 23.8429 11.3144 24.1555 11.0018C24.468 10.6893 24.892 10.5137 25.334 10.5137H30.334C30.776 10.5137 31.1999 10.6893 31.5125 11.0018C31.8251 11.3144 32.0007 11.7383 32.0007 12.1803V30.5137C32.0007 30.9557 31.8251 31.3796 31.5125 31.6922C31.1999 32.0047 30.776 32.1803 30.334 32.1803Z" fill="white"/>
</svg>
