<svg width="44" height="45" viewBox="0 0 44 45" fill="none" xmlns="http://www.w3.org/2000/svg">
<path d="M23.0622 4.56594C22.7537 4.34466 22.3831 4.22656 22.0034 4.22854C21.6238 4.23052 21.2545 4.35246 20.9483 4.57694C17.586 7.01344 7.33398 15.3074 7.33398 25.8454C7.33398 31.7983 10.9053 36.9243 16.013 39.2214C15.1391 37.9917 14.6689 36.5208 14.6673 35.0121C14.6362 29.1069 21.1903 22.3749 21.469 22.1788C21.6237 22.0679 21.8093 22.0082 21.9997 22.0082C22.1901 22.0082 22.3757 22.0679 22.5305 22.1788C22.8091 22.3749 29.334 27.6311 29.334 35.0158C29.334 36.5814 28.8298 38.0279 27.9901 39.2214C33.096 36.9243 36.6673 31.8001 36.6673 25.8546C36.6673 15.1094 26.4336 6.95844 23.0622 4.56594Z" fill="#4C40F7"/>
</svg>
