<svg width="41" height="41" viewBox="0 0 41 41" fill="none" xmlns="http://www.w3.org/2000/svg">
<path d="M19.8115 11.8438H13.3365C12.6523 11.8436 11.9845 12.0539 11.424 12.4463C10.8634 12.8387 10.4372 13.3941 10.2032 14.0371L3.93651 31.2738C3.71485 31.8821 3.86651 32.5638 4.32318 33.0221L4.81151 33.5104L15.5148 22.8071C15.5132 22.7638 15.5015 22.7204 15.5015 22.6771C15.5015 22.1827 15.6481 21.6993 15.9228 21.2882C16.1975 20.8771 16.588 20.5566 17.0448 20.3674C17.5016 20.1782 18.0043 20.1287 18.4892 20.2251C18.9742 20.3216 19.4196 20.5597 19.7693 20.9093C20.1189 21.259 20.357 21.7044 20.4535 22.1894C20.5499 22.6743 20.5004 23.177 20.3112 23.6338C20.122 24.0906 19.8016 24.4811 19.3904 24.7558C18.9793 25.0305 18.496 25.1771 18.0015 25.1771C17.9582 25.1771 17.9148 25.1654 17.8715 25.1638L7.16818 35.8671L7.65651 36.3554C7.8806 36.5801 8.16432 36.7359 8.47414 36.8044C8.78396 36.8729 9.10692 36.8513 9.40485 36.7421L26.6415 30.4738C27.2845 30.2398 27.8399 29.8135 28.2323 29.253C28.6247 28.6924 28.8351 28.0247 28.8348 27.3404V20.8654L32.1665 17.5354L23.1432 8.51211L19.8115 11.8438V11.8438ZM33.7332 15.2804L25.3998 6.94711L28.9332 3.41211L37.2665 11.7454L33.7332 15.2804Z" fill="white"/>
</svg>
